<?xml version="1.0" encoding="UTF-8" standalone="no"?>
<!-- Created with Inkscape (http://www.inkscape.org/) -->

<svg
   width="151.44424mm"
   height="152.77167mm"
   viewBox="0 0 151.44424 152.77167"
   version="1.1"
   id="svg1"
   xml:space="preserve"
   xmlns="http://www.w3.org/2000/svg"
   xmlns:svg="http://www.w3.org/2000/svg"><defs
     id="defs1" /><g
     id="layer1"
     transform="translate(-29.133869,-71.74689)"><path
       style="fill:#000000"
       d="m 66.963504,224.33686 c -4.070207,-0.47515 -9.080308,-1.90247 -12.85621,-3.66258 -12.46657,-5.81121 -21.170611,-16.6044 -24.253894,-30.07534 l -0.597956,-2.61248 -0.08705,-38.49688 c -0.08989,-39.75424 -0.07955,-40.22703 0.993702,-45.41519 2.250981,-10.881374 9.980956,-21.072866 20.509463,-27.040447 5.083894,-2.881562 11.258014,-4.610069 18.154992,-5.082673 5.68941,-0.389858 72.996929,-0.173466 75.371359,0.242316 8.54556,1.496398 14.18184,3.868356 20.72414,8.721498 2.62176,1.94484 6.17534,5.696124 8.41873,8.887092 3.02065,4.296529 5.47933,10.179699 6.64444,15.898864 l 0.5929,2.91042 v 39.55521 c 0,37.04897 -0.0302,39.7035 -0.47631,41.89571 -2.26706,11.13991 -9.3336,21.57483 -18.6332,27.51501 -3.8001,2.42734 -8.80827,4.64966 -12.62806,5.60356 -5.38429,1.34459 -3.12192,1.27433 -42.87493,1.3315 -20.372911,0.0293 -37.923865,-0.0497 -39.002116,-0.17559 z m 14.18021,-7.67219 c 0.409656,-0.16152 3.245141,-1.16595 6.301078,-2.23206 18.811548,-6.56273 33.587058,-12.17583 40.171308,-15.26074 14.1764,-6.64205 21.00118,-14.01083 22.96001,-24.79013 0.62812,-3.45648 0.6696,-9.23409 0.0901,-12.54714 -0.78287,-4.47561 -2.89789,-9.77813 -5.48069,-13.74048 l -1.42991,-2.19368 1.15264,-1.40946 c 1.62677,-1.98925 3.19377,-4.71715 3.93647,-6.85279 1.27732,-3.67293 1.51531,-5.40625 1.61505,-11.76267 0.0519,-3.3106 0.004,-6.01607 -0.10713,-6.01216 -0.11087,0.004 -0.55833,0.80759 -0.99435,1.78594 -2.3462,5.26446 -7.3056,10.73499 -13.68366,15.09395 -2.1036,1.43767 -7.81795,4.60856 -11.71732,6.50193 -3.15978,1.53426 -15.73616,6.96139 -19.86529,8.57253 -11.91839,4.65043 -21.746031,9.22458 -27.098249,12.61253 -7.887599,4.99285 -14.30457,12.53945 -16.632822,19.56085 -1.090264,3.28795 -1.450676,5.99195 -1.273122,9.55162 0.372259,7.46319 3.551917,14.15061 9.556284,20.09865 l 2.661119,2.63616 0.159549,-9.77991 c 0.144618,-8.8647 0.212689,-9.97798 0.727405,-11.89657 1.946129,-7.25413 7.32942,-12.81188 18.427628,-19.02484 3.623257,-2.02836 12.423438,-6.38428 22.568638,-11.17104 8.73809,-4.12285 12.82777,-6.18971 16.85428,-8.51791 l 3.175,-1.83584 0.74802,0.69565 c 1.28469,1.19474 2.80858,3.78522 3.49124,5.93483 0.78958,2.48628 0.89561,6.29557 0.2448,8.79429 -0.81079,3.11292 -3.83284,6.90613 -7.83958,9.84008 -3.01377,2.20684 -8.36399,5.15964 -13.29185,7.3358 -3.72836,1.64645 -16.705992,7.02294 -16.951808,7.02294 -0.08376,0 -2.559465,0.9482 -5.50156,2.10712 -2.942095,1.15892 -7.254263,2.85556 -9.582596,3.77032 l -4.233333,1.66318 -0.07008,7.87136 c -0.03855,4.32924 -0.01653,7.87135 0.04892,7.87135 0.06545,0 0.454178,-0.13215 0.863833,-0.29366 z M 59.54796,174.25279 c 0.58166,-1.53232 4.098158,-6.79632 5.816794,-8.7074 2.566358,-2.85374 7.363514,-6.51057 12.290456,-9.36891 5.972438,-3.46488 17.116103,-8.50084 31.08854,-14.0493 8.73109,-3.46712 13.10325,-5.35925 18.12396,-7.84348 13.31857,-6.58999 19.78202,-13.31635 22.40583,-23.3172 0.74721,-2.84807 0.82788,-3.54045 0.84468,-7.24983 0.0157,-3.46662 -0.0744,-4.448951 -0.58219,-6.350001 -1.26541,-4.737116 -2.57397,-7.451578 -5.44557,-11.296242 -1.71883,-2.301253 -4.91216,-5.565092 -5.73104,-5.857577 -0.14972,-0.05347 -0.24829,3.487935 -0.2504,8.995833 -0.003,7.869303 -0.0704,9.408219 -0.5038,11.508417 -1.14141,5.5308 -4.805,10.26145 -11.17982,14.43603 -4.34741,2.84692 -8.36953,4.78287 -23.27689,11.20376 -6.239443,2.68744 -6.375359,2.74783 -11.602676,5.15512 -4.61843,2.12688 -7.950457,3.88566 -12.905638,6.81213 -1.350028,0.79731 -2.491774,1.40328 -2.537212,1.34661 -3.028584,-3.77743 -4.400899,-7.08367 -4.400899,-10.60283 0,-6.72844 5.050926,-12.38832 15.645557,-17.53183 5.52812,-2.6838 14.848008,-6.39394 36.477358,-14.521191 l 5.95312,-2.236893 0.0702,-7.707548 0.0702,-7.707547 -0.73161,0.179496 c -0.40239,0.09872 -2.75568,0.884474 -5.22953,1.746112 -2.47385,0.861639 -5.39088,1.870646 -6.48229,2.242238 -6.72932,2.291134 -15.20198,5.252589 -18.388541,6.427353 -2.037292,0.751073 -4.478073,1.637816 -5.423959,1.97054 -2.229838,0.784365 -9.396764,3.689051 -11.773957,4.77187 -2.937357,1.337976 -8.370526,4.46376 -10.628961,6.11499 -2.992207,2.18773 -7.155481,6.48026 -8.501064,8.765 -3.383718,5.7454 -4.678974,12.89356 -3.537147,19.52053 0.988726,5.73841 2.34874,9.34278 5.425054,14.37772 l 1.510051,2.47148 -1.288562,1.49727 c -3.107345,3.61066 -4.756034,6.70379 -5.593001,10.49311 -0.447506,2.02606 -0.526813,3.38434 -0.531685,9.10608 -0.0031,3.69865 0.07912,6.63998 0.182826,6.53627 0.103704,-0.1037 0.383562,-0.70228 0.621906,-1.33018 z"
       id="path1" /></g></svg>
